<mxfile host="app.diagrams.net" agent="Mozilla/5.0 (X11; Linux x86_64) AppleWebKit/537.36 (KHTML, like Gecko) Chrome/126.0.0.0 Safari/537.36" version="24.7.7">
  <diagram name="Page-1" id="pNvQRuQByr58pv_2uBEc">
    <mxGraphModel dx="2046" dy="1805" grid="1" gridSize="10" guides="1" tooltips="1" connect="1" arrows="1" fold="1" page="1" pageScale="1" pageWidth="850" pageHeight="1100" math="0" shadow="0">
      <root>
        <mxCell id="0" />
        <mxCell id="1" parent="0" />
        <mxCell id="MjxvD5OSWokNJ4Lf-cbv-1" style="edgeStyle=orthogonalEdgeStyle;rounded=0;orthogonalLoop=1;jettySize=auto;html=1;exitX=1;exitY=0.5;exitDx=0;exitDy=0;entryX=0;entryY=0.5;entryDx=0;entryDy=0;strokeWidth=4;" edge="1" parent="1" source="MjxvD5OSWokNJ4Lf-cbv-3" target="MjxvD5OSWokNJ4Lf-cbv-10">
          <mxGeometry relative="1" as="geometry" />
        </mxCell>
        <mxCell id="MjxvD5OSWokNJ4Lf-cbv-2" style="edgeStyle=orthogonalEdgeStyle;rounded=0;orthogonalLoop=1;jettySize=auto;html=1;exitX=0.5;exitY=0;exitDx=0;exitDy=0;entryX=0.5;entryY=1;entryDx=0;entryDy=0;strokeWidth=4;" edge="1" parent="1" source="MjxvD5OSWokNJ4Lf-cbv-3" target="MjxvD5OSWokNJ4Lf-cbv-56">
          <mxGeometry relative="1" as="geometry" />
        </mxCell>
        <mxCell id="MjxvD5OSWokNJ4Lf-cbv-3" value="" style="rounded=1;whiteSpace=wrap;html=1;fillColor=#f8cecc;strokeColor=#b85450;strokeWidth=4;" vertex="1" parent="1">
          <mxGeometry x="240" y="160" width="80" height="280" as="geometry" />
        </mxCell>
        <mxCell id="MjxvD5OSWokNJ4Lf-cbv-4" value="" style="ellipse;whiteSpace=wrap;html=1;aspect=fixed;fillColor=#d80073;strokeColor=#A50040;strokeWidth=4;fontColor=#ffffff;" vertex="1" parent="1">
          <mxGeometry x="255" y="170" width="50" height="50" as="geometry" />
        </mxCell>
        <mxCell id="MjxvD5OSWokNJ4Lf-cbv-5" value="" style="ellipse;whiteSpace=wrap;html=1;aspect=fixed;fillColor=#d80073;strokeColor=#A50040;strokeWidth=4;fontColor=#ffffff;" vertex="1" parent="1">
          <mxGeometry x="255" y="240" width="50" height="50" as="geometry" />
        </mxCell>
        <mxCell id="MjxvD5OSWokNJ4Lf-cbv-6" value="" style="ellipse;whiteSpace=wrap;html=1;aspect=fixed;fillColor=#d80073;strokeColor=#A50040;strokeWidth=4;fontColor=#ffffff;" vertex="1" parent="1">
          <mxGeometry x="255" y="310" width="50" height="50" as="geometry" />
        </mxCell>
        <mxCell id="MjxvD5OSWokNJ4Lf-cbv-7" value="" style="ellipse;whiteSpace=wrap;html=1;aspect=fixed;fillColor=#d80073;strokeColor=#A50040;strokeWidth=4;fontColor=#ffffff;" vertex="1" parent="1">
          <mxGeometry x="255" y="380" width="50" height="50" as="geometry" />
        </mxCell>
        <mxCell id="MjxvD5OSWokNJ4Lf-cbv-8" style="edgeStyle=orthogonalEdgeStyle;rounded=0;orthogonalLoop=1;jettySize=auto;html=1;exitX=1;exitY=0.5;exitDx=0;exitDy=0;entryX=0;entryY=0.5;entryDx=0;entryDy=0;strokeWidth=4;" edge="1" parent="1" source="MjxvD5OSWokNJ4Lf-cbv-10" target="MjxvD5OSWokNJ4Lf-cbv-28">
          <mxGeometry relative="1" as="geometry" />
        </mxCell>
        <mxCell id="MjxvD5OSWokNJ4Lf-cbv-9" style="edgeStyle=orthogonalEdgeStyle;rounded=0;orthogonalLoop=1;jettySize=auto;html=1;exitX=0.5;exitY=0;exitDx=0;exitDy=0;strokeWidth=4;" edge="1" parent="1" source="MjxvD5OSWokNJ4Lf-cbv-10" target="MjxvD5OSWokNJ4Lf-cbv-57">
          <mxGeometry relative="1" as="geometry" />
        </mxCell>
        <mxCell id="MjxvD5OSWokNJ4Lf-cbv-10" value="" style="rounded=1;whiteSpace=wrap;html=1;fillColor=#f8cecc;strokeColor=#b85450;strokeWidth=4;" vertex="1" parent="1">
          <mxGeometry x="400" y="160" width="80" height="280" as="geometry" />
        </mxCell>
        <mxCell id="MjxvD5OSWokNJ4Lf-cbv-11" value="" style="ellipse;whiteSpace=wrap;html=1;aspect=fixed;fillColor=#d80073;strokeColor=#A50040;strokeWidth=4;fontColor=#ffffff;" vertex="1" parent="1">
          <mxGeometry x="415" y="170" width="50" height="50" as="geometry" />
        </mxCell>
        <mxCell id="MjxvD5OSWokNJ4Lf-cbv-12" value="" style="ellipse;whiteSpace=wrap;html=1;aspect=fixed;fillColor=#d80073;strokeColor=#A50040;strokeWidth=4;fontColor=#ffffff;" vertex="1" parent="1">
          <mxGeometry x="415" y="240" width="50" height="50" as="geometry" />
        </mxCell>
        <mxCell id="MjxvD5OSWokNJ4Lf-cbv-13" value="" style="ellipse;whiteSpace=wrap;html=1;aspect=fixed;fillColor=#d80073;strokeColor=#A50040;strokeWidth=4;fontColor=#ffffff;" vertex="1" parent="1">
          <mxGeometry x="415" y="310" width="50" height="50" as="geometry" />
        </mxCell>
        <mxCell id="MjxvD5OSWokNJ4Lf-cbv-14" value="" style="ellipse;whiteSpace=wrap;html=1;aspect=fixed;fillColor=#d80073;strokeColor=#A50040;strokeWidth=4;fontColor=#ffffff;" vertex="1" parent="1">
          <mxGeometry x="415" y="380" width="50" height="50" as="geometry" />
        </mxCell>
        <mxCell id="MjxvD5OSWokNJ4Lf-cbv-15" style="edgeStyle=orthogonalEdgeStyle;rounded=0;orthogonalLoop=1;jettySize=auto;html=1;entryX=0.5;entryY=1;entryDx=0;entryDy=0;strokeWidth=4;" edge="1" parent="1" source="MjxvD5OSWokNJ4Lf-cbv-16" target="MjxvD5OSWokNJ4Lf-cbv-3">
          <mxGeometry relative="1" as="geometry" />
        </mxCell>
        <mxCell id="MjxvD5OSWokNJ4Lf-cbv-16" value="sem" style="text;html=1;align=center;verticalAlign=middle;whiteSpace=wrap;rounded=0;fontStyle=1;fontSize=45;" vertex="1" parent="1">
          <mxGeometry x="250" y="520" width="60" height="30" as="geometry" />
        </mxCell>
        <mxCell id="MjxvD5OSWokNJ4Lf-cbv-17" style="edgeStyle=orthogonalEdgeStyle;rounded=0;orthogonalLoop=1;jettySize=auto;html=1;entryX=0.5;entryY=1;entryDx=0;entryDy=0;strokeWidth=4;" edge="1" parent="1" source="MjxvD5OSWokNJ4Lf-cbv-18" target="MjxvD5OSWokNJ4Lf-cbv-10">
          <mxGeometry relative="1" as="geometry" />
        </mxCell>
        <mxCell id="MjxvD5OSWokNJ4Lf-cbv-18" value="palavras" style="text;html=1;align=center;verticalAlign=middle;whiteSpace=wrap;rounded=0;fontStyle=1;fontSize=45;" vertex="1" parent="1">
          <mxGeometry x="410" y="520" width="60" height="30" as="geometry" />
        </mxCell>
        <mxCell id="MjxvD5OSWokNJ4Lf-cbv-19" style="edgeStyle=orthogonalEdgeStyle;rounded=0;orthogonalLoop=1;jettySize=auto;html=1;exitX=0.5;exitY=0;exitDx=0;exitDy=0;strokeWidth=4;" edge="1" parent="1" source="MjxvD5OSWokNJ4Lf-cbv-21" target="MjxvD5OSWokNJ4Lf-cbv-74">
          <mxGeometry relative="1" as="geometry">
            <mxPoint x="760" y="-180" as="targetPoint" />
          </mxGeometry>
        </mxCell>
        <mxCell id="MjxvD5OSWokNJ4Lf-cbv-20" style="edgeStyle=orthogonalEdgeStyle;rounded=0;orthogonalLoop=1;jettySize=auto;html=1;exitX=1;exitY=0.5;exitDx=0;exitDy=0;entryX=0;entryY=0.5;entryDx=0;entryDy=0;strokeWidth=4;" edge="1" parent="1" source="MjxvD5OSWokNJ4Lf-cbv-21">
          <mxGeometry relative="1" as="geometry">
            <mxPoint x="880" y="300" as="targetPoint" />
          </mxGeometry>
        </mxCell>
        <mxCell id="MjxvD5OSWokNJ4Lf-cbv-21" value="" style="rounded=1;whiteSpace=wrap;html=1;fillColor=#d5e8d4;strokeColor=#82b366;strokeWidth=4;" vertex="1" parent="1">
          <mxGeometry x="720" y="160" width="80" height="280" as="geometry" />
        </mxCell>
        <mxCell id="MjxvD5OSWokNJ4Lf-cbv-22" value="" style="ellipse;whiteSpace=wrap;html=1;aspect=fixed;fillColor=#60a917;strokeColor=#2D7600;strokeWidth=4;fontColor=#ffffff;" vertex="1" parent="1">
          <mxGeometry x="735" y="170" width="50" height="50" as="geometry" />
        </mxCell>
        <mxCell id="MjxvD5OSWokNJ4Lf-cbv-23" value="" style="ellipse;whiteSpace=wrap;html=1;aspect=fixed;fillColor=#60a917;strokeColor=#2D7600;strokeWidth=4;fontColor=#ffffff;" vertex="1" parent="1">
          <mxGeometry x="735" y="240" width="50" height="50" as="geometry" />
        </mxCell>
        <mxCell id="MjxvD5OSWokNJ4Lf-cbv-24" value="" style="ellipse;whiteSpace=wrap;html=1;aspect=fixed;fillColor=#60a917;strokeColor=#2D7600;strokeWidth=4;fontColor=#ffffff;" vertex="1" parent="1">
          <mxGeometry x="735" y="310" width="50" height="50" as="geometry" />
        </mxCell>
        <mxCell id="MjxvD5OSWokNJ4Lf-cbv-25" value="" style="ellipse;whiteSpace=wrap;html=1;aspect=fixed;fillColor=#60a917;strokeColor=#2D7600;strokeWidth=4;fontColor=#ffffff;" vertex="1" parent="1">
          <mxGeometry x="735" y="380" width="50" height="50" as="geometry" />
        </mxCell>
        <mxCell id="MjxvD5OSWokNJ4Lf-cbv-26" value="&amp;lt;sos&amp;gt;" style="text;html=1;align=center;verticalAlign=middle;whiteSpace=wrap;rounded=0;fontStyle=1;fontSize=45;" vertex="1" parent="1">
          <mxGeometry x="730" y="520" width="60" height="30" as="geometry" />
        </mxCell>
        <mxCell id="MjxvD5OSWokNJ4Lf-cbv-27" style="edgeStyle=orthogonalEdgeStyle;rounded=0;orthogonalLoop=1;jettySize=auto;html=1;exitX=1;exitY=0.5;exitDx=0;exitDy=0;entryX=0;entryY=0.5;entryDx=0;entryDy=0;strokeWidth=4;" edge="1" parent="1" source="MjxvD5OSWokNJ4Lf-cbv-28" target="MjxvD5OSWokNJ4Lf-cbv-21">
          <mxGeometry relative="1" as="geometry" />
        </mxCell>
        <mxCell id="MjxvD5OSWokNJ4Lf-cbv-28" value="" style="rounded=0;whiteSpace=wrap;html=1;fillColor=#6a00ff;fontColor=#ffffff;strokeColor=#000000;strokeWidth=4;" vertex="1" parent="1">
          <mxGeometry x="560" y="195" width="80" height="210" as="geometry" />
        </mxCell>
        <mxCell id="MjxvD5OSWokNJ4Lf-cbv-29" style="edgeStyle=orthogonalEdgeStyle;rounded=0;orthogonalLoop=1;jettySize=auto;html=1;exitX=1;exitY=0.5;exitDx=0;exitDy=0;entryX=0;entryY=0.5;entryDx=0;entryDy=0;strokeWidth=4;" edge="1" parent="1" source="MjxvD5OSWokNJ4Lf-cbv-31" target="MjxvD5OSWokNJ4Lf-cbv-38">
          <mxGeometry relative="1" as="geometry" />
        </mxCell>
        <mxCell id="MjxvD5OSWokNJ4Lf-cbv-30" style="edgeStyle=orthogonalEdgeStyle;rounded=0;orthogonalLoop=1;jettySize=auto;html=1;entryX=0.5;entryY=1;entryDx=0;entryDy=0;strokeWidth=4;" edge="1" parent="1" source="MjxvD5OSWokNJ4Lf-cbv-31" target="MjxvD5OSWokNJ4Lf-cbv-53">
          <mxGeometry relative="1" as="geometry" />
        </mxCell>
        <mxCell id="MjxvD5OSWokNJ4Lf-cbv-31" value="" style="rounded=1;whiteSpace=wrap;html=1;fillColor=#f8cecc;strokeColor=#b85450;strokeWidth=4;" vertex="1" parent="1">
          <mxGeometry x="-80" y="160" width="80" height="280" as="geometry" />
        </mxCell>
        <mxCell id="MjxvD5OSWokNJ4Lf-cbv-32" value="" style="ellipse;whiteSpace=wrap;html=1;aspect=fixed;fillColor=#d80073;strokeColor=#A50040;strokeWidth=4;fontColor=#ffffff;" vertex="1" parent="1">
          <mxGeometry x="-65" y="170" width="50" height="50" as="geometry" />
        </mxCell>
        <mxCell id="MjxvD5OSWokNJ4Lf-cbv-33" value="" style="ellipse;whiteSpace=wrap;html=1;aspect=fixed;fillColor=#d80073;strokeColor=#A50040;strokeWidth=4;fontColor=#ffffff;" vertex="1" parent="1">
          <mxGeometry x="-65" y="240" width="50" height="50" as="geometry" />
        </mxCell>
        <mxCell id="MjxvD5OSWokNJ4Lf-cbv-34" value="" style="ellipse;whiteSpace=wrap;html=1;aspect=fixed;fillColor=#d80073;strokeColor=#A50040;strokeWidth=4;fontColor=#ffffff;" vertex="1" parent="1">
          <mxGeometry x="-65" y="310" width="50" height="50" as="geometry" />
        </mxCell>
        <mxCell id="MjxvD5OSWokNJ4Lf-cbv-35" value="" style="ellipse;whiteSpace=wrap;html=1;aspect=fixed;fillColor=#d80073;strokeColor=#A50040;strokeWidth=4;fontColor=#ffffff;" vertex="1" parent="1">
          <mxGeometry x="-65" y="380" width="50" height="50" as="geometry" />
        </mxCell>
        <mxCell id="MjxvD5OSWokNJ4Lf-cbv-36" style="edgeStyle=orthogonalEdgeStyle;rounded=0;orthogonalLoop=1;jettySize=auto;html=1;exitX=1;exitY=0.5;exitDx=0;exitDy=0;entryX=0;entryY=0.5;entryDx=0;entryDy=0;strokeWidth=4;" edge="1" parent="1" source="MjxvD5OSWokNJ4Lf-cbv-38" target="MjxvD5OSWokNJ4Lf-cbv-3">
          <mxGeometry relative="1" as="geometry" />
        </mxCell>
        <mxCell id="MjxvD5OSWokNJ4Lf-cbv-37" style="edgeStyle=orthogonalEdgeStyle;rounded=0;orthogonalLoop=1;jettySize=auto;html=1;exitX=0.5;exitY=0;exitDx=0;exitDy=0;entryX=0.5;entryY=1;entryDx=0;entryDy=0;strokeWidth=4;" edge="1" parent="1" source="MjxvD5OSWokNJ4Lf-cbv-38" target="MjxvD5OSWokNJ4Lf-cbv-55">
          <mxGeometry relative="1" as="geometry" />
        </mxCell>
        <mxCell id="MjxvD5OSWokNJ4Lf-cbv-38" value="" style="rounded=1;whiteSpace=wrap;html=1;fillColor=#f8cecc;strokeColor=#b85450;strokeWidth=4;" vertex="1" parent="1">
          <mxGeometry x="80" y="160" width="80" height="280" as="geometry" />
        </mxCell>
        <mxCell id="MjxvD5OSWokNJ4Lf-cbv-39" value="" style="ellipse;whiteSpace=wrap;html=1;aspect=fixed;fillColor=#d80073;strokeColor=#A50040;strokeWidth=4;fontColor=#ffffff;" vertex="1" parent="1">
          <mxGeometry x="95" y="170" width="50" height="50" as="geometry" />
        </mxCell>
        <mxCell id="MjxvD5OSWokNJ4Lf-cbv-40" value="" style="ellipse;whiteSpace=wrap;html=1;aspect=fixed;fillColor=#d80073;strokeColor=#A50040;strokeWidth=4;fontColor=#ffffff;" vertex="1" parent="1">
          <mxGeometry x="95" y="240" width="50" height="50" as="geometry" />
        </mxCell>
        <mxCell id="MjxvD5OSWokNJ4Lf-cbv-41" value="" style="ellipse;whiteSpace=wrap;html=1;aspect=fixed;fillColor=#d80073;strokeColor=#A50040;strokeWidth=4;fontColor=#ffffff;" vertex="1" parent="1">
          <mxGeometry x="95" y="310" width="50" height="50" as="geometry" />
        </mxCell>
        <mxCell id="MjxvD5OSWokNJ4Lf-cbv-42" value="" style="ellipse;whiteSpace=wrap;html=1;aspect=fixed;fillColor=#d80073;strokeColor=#A50040;strokeWidth=4;fontColor=#ffffff;" vertex="1" parent="1">
          <mxGeometry x="95" y="380" width="50" height="50" as="geometry" />
        </mxCell>
        <mxCell id="MjxvD5OSWokNJ4Lf-cbv-43" style="edgeStyle=orthogonalEdgeStyle;rounded=0;orthogonalLoop=1;jettySize=auto;html=1;entryX=0.5;entryY=1;entryDx=0;entryDy=0;strokeWidth=4;" edge="1" parent="1" source="MjxvD5OSWokNJ4Lf-cbv-44" target="MjxvD5OSWokNJ4Lf-cbv-31">
          <mxGeometry relative="1" as="geometry" />
        </mxCell>
        <mxCell id="MjxvD5OSWokNJ4Lf-cbv-44" value="Eu" style="text;html=1;align=center;verticalAlign=middle;whiteSpace=wrap;rounded=0;fontStyle=1;fontSize=45;" vertex="1" parent="1">
          <mxGeometry x="-70" y="520" width="60" height="30" as="geometry" />
        </mxCell>
        <mxCell id="MjxvD5OSWokNJ4Lf-cbv-45" style="edgeStyle=orthogonalEdgeStyle;rounded=0;orthogonalLoop=1;jettySize=auto;html=1;entryX=0.5;entryY=1;entryDx=0;entryDy=0;strokeWidth=4;" edge="1" parent="1" source="MjxvD5OSWokNJ4Lf-cbv-46" target="MjxvD5OSWokNJ4Lf-cbv-38">
          <mxGeometry relative="1" as="geometry" />
        </mxCell>
        <mxCell id="MjxvD5OSWokNJ4Lf-cbv-46" value="estou" style="text;html=1;align=center;verticalAlign=middle;whiteSpace=wrap;rounded=0;fontStyle=1;fontSize=45;" vertex="1" parent="1">
          <mxGeometry x="90" y="520" width="60" height="30" as="geometry" />
        </mxCell>
        <mxCell id="MjxvD5OSWokNJ4Lf-cbv-47" value="" style="shape=curlyBracket;whiteSpace=wrap;html=1;rounded=1;labelPosition=left;verticalLabelPosition=middle;align=right;verticalAlign=middle;rotation=-90;strokeWidth=4;" vertex="1" parent="1">
          <mxGeometry x="200" y="305" width="20" height="590" as="geometry" />
        </mxCell>
        <mxCell id="MjxvD5OSWokNJ4Lf-cbv-48" value="Sentença de Entrada&lt;div style=&quot;font-size: 28px;&quot;&gt;Idioma de Origem&lt;/div&gt;" style="text;html=1;align=center;verticalAlign=middle;whiteSpace=wrap;rounded=0;fontSize=28;" vertex="1" parent="1">
          <mxGeometry x="50" y="630" width="320" height="30" as="geometry" />
        </mxCell>
        <mxCell id="MjxvD5OSWokNJ4Lf-cbv-51" value="Encoder" style="text;html=1;align=center;verticalAlign=middle;whiteSpace=wrap;rounded=0;fontColor=#FF0080;fontStyle=1;fontSize=45;" vertex="1" parent="1">
          <mxGeometry x="-240" y="285" width="60" height="30" as="geometry" />
        </mxCell>
        <mxCell id="MjxvD5OSWokNJ4Lf-cbv-52" value="Decoder" style="text;html=1;align=center;verticalAlign=middle;whiteSpace=wrap;rounded=0;fontColor=#4D9900;fontStyle=1;fontSize=45;" vertex="1" parent="1">
          <mxGeometry x="970" y="610" width="60" height="30" as="geometry" />
        </mxCell>
        <mxCell id="MjxvD5OSWokNJ4Lf-cbv-53" value="" style="ellipse;whiteSpace=wrap;html=1;aspect=fixed;fillColor=#1ba1e2;strokeColor=#006EAF;strokeWidth=4;fontColor=#ffffff;" vertex="1" parent="1">
          <mxGeometry x="-65" y="-80" width="50" height="50" as="geometry" />
        </mxCell>
        <mxCell id="MjxvD5OSWokNJ4Lf-cbv-54" value="" style="endArrow=classic;html=1;rounded=0;exitX=0.5;exitY=0;exitDx=0;exitDy=0;entryX=0.798;entryY=1.024;entryDx=0;entryDy=0;entryPerimeter=0;strokeWidth=4;" edge="1" parent="1" source="MjxvD5OSWokNJ4Lf-cbv-76" target="MjxvD5OSWokNJ4Lf-cbv-53">
          <mxGeometry width="50" height="50" relative="1" as="geometry">
            <mxPoint x="280" y="230" as="sourcePoint" />
            <mxPoint x="330" y="180" as="targetPoint" />
          </mxGeometry>
        </mxCell>
        <mxCell id="MjxvD5OSWokNJ4Lf-cbv-55" value="" style="ellipse;whiteSpace=wrap;html=1;aspect=fixed;fillColor=#1ba1e2;strokeColor=#006EAF;strokeWidth=4;fontColor=#ffffff;" vertex="1" parent="1">
          <mxGeometry x="95" y="-80" width="50" height="50" as="geometry" />
        </mxCell>
        <mxCell id="MjxvD5OSWokNJ4Lf-cbv-56" value="" style="ellipse;whiteSpace=wrap;html=1;aspect=fixed;fillColor=#1ba1e2;strokeColor=#006EAF;strokeWidth=4;fontColor=#ffffff;" vertex="1" parent="1">
          <mxGeometry x="255" y="-80" width="50" height="50" as="geometry" />
        </mxCell>
        <mxCell id="MjxvD5OSWokNJ4Lf-cbv-57" value="" style="ellipse;whiteSpace=wrap;html=1;aspect=fixed;fillColor=#1ba1e2;strokeColor=#006EAF;strokeWidth=4;fontColor=#ffffff;" vertex="1" parent="1">
          <mxGeometry x="415" y="-80" width="50" height="50" as="geometry" />
        </mxCell>
        <mxCell id="MjxvD5OSWokNJ4Lf-cbv-58" value="" style="endArrow=classic;html=1;rounded=0;entryX=1;entryY=1;entryDx=0;entryDy=0;strokeWidth=4;exitX=0.5;exitY=0;exitDx=0;exitDy=0;" edge="1" parent="1" target="MjxvD5OSWokNJ4Lf-cbv-55" source="MjxvD5OSWokNJ4Lf-cbv-76">
          <mxGeometry width="50" height="50" relative="1" as="geometry">
            <mxPoint x="760" y="160" as="sourcePoint" />
            <mxPoint x="-15" y="-19" as="targetPoint" />
          </mxGeometry>
        </mxCell>
        <mxCell id="MjxvD5OSWokNJ4Lf-cbv-59" value="" style="endArrow=classic;html=1;rounded=0;exitX=0.5;exitY=0;exitDx=0;exitDy=0;entryX=1;entryY=1;entryDx=0;entryDy=0;strokeWidth=4;" edge="1" parent="1" source="MjxvD5OSWokNJ4Lf-cbv-76" target="MjxvD5OSWokNJ4Lf-cbv-56">
          <mxGeometry width="50" height="50" relative="1" as="geometry">
            <mxPoint x="1080" y="160" as="sourcePoint" />
            <mxPoint x="-5" y="-9" as="targetPoint" />
          </mxGeometry>
        </mxCell>
        <mxCell id="MjxvD5OSWokNJ4Lf-cbv-60" value="" style="endArrow=classic;html=1;rounded=0;exitX=0.5;exitY=0;exitDx=0;exitDy=0;entryX=1;entryY=1;entryDx=0;entryDy=0;strokeWidth=4;" edge="1" parent="1" source="MjxvD5OSWokNJ4Lf-cbv-76" target="MjxvD5OSWokNJ4Lf-cbv-57">
          <mxGeometry width="50" height="50" relative="1" as="geometry">
            <mxPoint x="1240" y="160" as="sourcePoint" />
            <mxPoint x="470" y="-30" as="targetPoint" />
          </mxGeometry>
        </mxCell>
        <mxCell id="MjxvD5OSWokNJ4Lf-cbv-61" value="Scores&lt;div&gt;de Atenção&lt;/div&gt;" style="text;html=1;align=center;verticalAlign=middle;whiteSpace=wrap;rounded=0;fontColor=#000099;fontStyle=1;fontSize=45;" vertex="1" parent="1">
          <mxGeometry x="-290" y="-70" width="80" height="30" as="geometry" />
        </mxCell>
        <mxCell id="MjxvD5OSWokNJ4Lf-cbv-62" value="" style="endArrow=none;html=1;rounded=0;fillColor=#dae8fc;strokeColor=#6c8ebf;strokeWidth=4;" edge="1" parent="1">
          <mxGeometry width="50" height="50" relative="1" as="geometry">
            <mxPoint x="-120" y="-200" as="sourcePoint" />
            <mxPoint x="520" y="-200" as="targetPoint" />
          </mxGeometry>
        </mxCell>
        <mxCell id="MjxvD5OSWokNJ4Lf-cbv-63" value="" style="rounded=0;whiteSpace=wrap;html=1;fillColor=#dae8fc;strokeColor=#6c8ebf;strokeWidth=4;" vertex="1" parent="1">
          <mxGeometry x="-65" y="-220" width="50" height="20" as="geometry" />
        </mxCell>
        <mxCell id="MjxvD5OSWokNJ4Lf-cbv-64" value="" style="rounded=0;whiteSpace=wrap;html=1;fillColor=#dae8fc;strokeColor=#6c8ebf;strokeWidth=4;" vertex="1" parent="1">
          <mxGeometry x="95" y="-350" width="50" height="150" as="geometry" />
        </mxCell>
        <mxCell id="MjxvD5OSWokNJ4Lf-cbv-65" value="" style="rounded=0;whiteSpace=wrap;html=1;fillColor=#dae8fc;strokeColor=#6c8ebf;strokeWidth=4;" vertex="1" parent="1">
          <mxGeometry x="255" y="-260" width="50" height="60" as="geometry" />
        </mxCell>
        <mxCell id="MjxvD5OSWokNJ4Lf-cbv-66" value="" style="rounded=0;whiteSpace=wrap;html=1;fillColor=#dae8fc;strokeColor=#6c8ebf;strokeWidth=4;" vertex="1" parent="1">
          <mxGeometry x="415" y="-220" width="50" height="20" as="geometry" />
        </mxCell>
        <mxCell id="MjxvD5OSWokNJ4Lf-cbv-67" value="&lt;div&gt;Distribuição&lt;/div&gt;&lt;div&gt;de Atenção&lt;/div&gt;" style="text;html=1;align=center;verticalAlign=middle;whiteSpace=wrap;rounded=0;fontColor=#000099;fontStyle=1;fontSize=45;" vertex="1" parent="1">
          <mxGeometry x="-290" y="-290" width="80" height="30" as="geometry" />
        </mxCell>
        <mxCell id="MjxvD5OSWokNJ4Lf-cbv-68" value="Saída da Atenção" style="text;html=1;align=center;verticalAlign=middle;whiteSpace=wrap;rounded=0;fontSize=31;fontStyle=1" vertex="1" parent="1">
          <mxGeometry x="580" y="-355" width="400" height="30" as="geometry" />
        </mxCell>
        <mxCell id="MjxvD5OSWokNJ4Lf-cbv-69" value="" style="rounded=0;whiteSpace=wrap;html=1;fillColor=#0050ef;fontColor=#ffffff;strokeColor=#001DBC;strokeWidth=4;" vertex="1" parent="1">
          <mxGeometry x="600" y="-445" width="40" height="210" as="geometry" />
        </mxCell>
        <mxCell id="MjxvD5OSWokNJ4Lf-cbv-70" value="" style="shape=curlyBracket;whiteSpace=wrap;html=1;rounded=1;labelPosition=left;verticalLabelPosition=middle;align=right;verticalAlign=middle;rotation=-180;strokeWidth=4;" vertex="1" parent="1">
          <mxGeometry x="560" y="-500" width="20" height="320" as="geometry" />
        </mxCell>
        <mxCell id="MjxvD5OSWokNJ4Lf-cbv-71" value="" style="endArrow=classic;html=1;rounded=0;exitX=1;exitY=0.5;exitDx=0;exitDy=0;entryX=0.5;entryY=0;entryDx=0;entryDy=0;strokeWidth=4;" edge="1" parent="1" source="MjxvD5OSWokNJ4Lf-cbv-69" target="MjxvD5OSWokNJ4Lf-cbv-73">
          <mxGeometry width="50" height="50" relative="1" as="geometry">
            <mxPoint x="600" y="-140" as="sourcePoint" />
            <mxPoint x="760" y="-220" as="targetPoint" />
          </mxGeometry>
        </mxCell>
        <mxCell id="MjxvD5OSWokNJ4Lf-cbv-84" style="edgeStyle=orthogonalEdgeStyle;rounded=0;orthogonalLoop=1;jettySize=auto;html=1;exitX=1;exitY=0.5;exitDx=0;exitDy=0;strokeWidth=4;" edge="1" parent="1" source="MjxvD5OSWokNJ4Lf-cbv-73">
          <mxGeometry relative="1" as="geometry">
            <mxPoint x="1000" as="targetPoint" />
          </mxGeometry>
        </mxCell>
        <mxCell id="MjxvD5OSWokNJ4Lf-cbv-73" value="C" style="ellipse;whiteSpace=wrap;html=1;aspect=fixed;fontSize=36;strokeWidth=3;" vertex="1" parent="1">
          <mxGeometry x="900" y="-20" width="40" height="40" as="geometry" />
        </mxCell>
        <mxCell id="MjxvD5OSWokNJ4Lf-cbv-87" style="edgeStyle=orthogonalEdgeStyle;rounded=0;orthogonalLoop=1;jettySize=auto;html=1;entryX=0;entryY=0.5;entryDx=0;entryDy=0;strokeWidth=4;" edge="1" parent="1" source="MjxvD5OSWokNJ4Lf-cbv-74" target="MjxvD5OSWokNJ4Lf-cbv-81">
          <mxGeometry relative="1" as="geometry" />
        </mxCell>
        <mxCell id="MjxvD5OSWokNJ4Lf-cbv-74" value="I" style="text;html=1;align=center;verticalAlign=middle;whiteSpace=wrap;rounded=0;fontSize=45;" vertex="1" parent="1">
          <mxGeometry x="730" y="-10" width="60" height="30" as="geometry" />
        </mxCell>
        <mxCell id="MjxvD5OSWokNJ4Lf-cbv-75" style="edgeStyle=orthogonalEdgeStyle;rounded=0;orthogonalLoop=1;jettySize=auto;html=1;exitX=0.5;exitY=0;exitDx=0;exitDy=0;entryX=0.5;entryY=1;entryDx=0;entryDy=0;strokeWidth=4;" edge="1" parent="1" source="MjxvD5OSWokNJ4Lf-cbv-76" target="MjxvD5OSWokNJ4Lf-cbv-73">
          <mxGeometry relative="1" as="geometry">
            <mxPoint x="920" y="100" as="targetPoint" />
          </mxGeometry>
        </mxCell>
        <mxCell id="MjxvD5OSWokNJ4Lf-cbv-76" value="" style="rounded=1;whiteSpace=wrap;html=1;fillColor=#d5e8d4;strokeColor=#82b366;strokeWidth=4;" vertex="1" parent="1">
          <mxGeometry x="880" y="160" width="80" height="280" as="geometry" />
        </mxCell>
        <mxCell id="MjxvD5OSWokNJ4Lf-cbv-77" value="" style="ellipse;whiteSpace=wrap;html=1;aspect=fixed;fillColor=#60a917;strokeColor=#2D7600;strokeWidth=4;fontColor=#ffffff;" vertex="1" parent="1">
          <mxGeometry x="895" y="170" width="50" height="50" as="geometry" />
        </mxCell>
        <mxCell id="MjxvD5OSWokNJ4Lf-cbv-78" value="" style="ellipse;whiteSpace=wrap;html=1;aspect=fixed;fillColor=#60a917;strokeColor=#2D7600;strokeWidth=4;fontColor=#ffffff;" vertex="1" parent="1">
          <mxGeometry x="895" y="240" width="50" height="50" as="geometry" />
        </mxCell>
        <mxCell id="MjxvD5OSWokNJ4Lf-cbv-79" value="" style="ellipse;whiteSpace=wrap;html=1;aspect=fixed;fillColor=#60a917;strokeColor=#2D7600;strokeWidth=4;fontColor=#ffffff;" vertex="1" parent="1">
          <mxGeometry x="895" y="310" width="50" height="50" as="geometry" />
        </mxCell>
        <mxCell id="MjxvD5OSWokNJ4Lf-cbv-80" value="" style="ellipse;whiteSpace=wrap;html=1;aspect=fixed;fillColor=#60a917;strokeColor=#2D7600;strokeWidth=4;fontColor=#ffffff;" vertex="1" parent="1">
          <mxGeometry x="895" y="380" width="50" height="50" as="geometry" />
        </mxCell>
        <mxCell id="MjxvD5OSWokNJ4Lf-cbv-81" value="I" style="text;html=1;align=center;verticalAlign=middle;whiteSpace=wrap;rounded=0;fontStyle=1;fontSize=45;" vertex="1" parent="1">
          <mxGeometry x="890" y="520" width="60" height="30" as="geometry" />
        </mxCell>
        <mxCell id="MjxvD5OSWokNJ4Lf-cbv-85" value="am" style="text;html=1;align=center;verticalAlign=middle;whiteSpace=wrap;rounded=0;fontStyle=1;fontSize=45;" vertex="1" parent="1">
          <mxGeometry x="1010" y="-20" width="60" height="30" as="geometry" />
        </mxCell>
      </root>
    </mxGraphModel>
  </diagram>
</mxfile>
